<mxfile host="65bd71144e">
    <diagram id="PDvZ9loh4XmoKOorYLTp" name="Page-1">
        <mxGraphModel dx="4926" dy="4088" grid="0" gridSize="10" guides="1" tooltips="1" connect="1" arrows="1" fold="1" page="1" pageScale="1" pageWidth="850" pageHeight="1100" background="#ffffff" math="0" shadow="0">
            <root>
                <mxCell id="0"/>
                <mxCell id="1" parent="0"/>
                <mxCell id="2" value="" style="rounded=0;whiteSpace=wrap;html=1;fillColor=#FFFFFF;strokeColor=#0d0d0d;" vertex="1" parent="1">
                    <mxGeometry x="486" y="99" width="223" height="248" as="geometry"/>
                </mxCell>
                <mxCell id="6" style="edgeStyle=orthogonalEdgeStyle;html=1;exitX=1;exitY=0.5;exitDx=0;exitDy=0;entryX=0;entryY=0.5;entryDx=0;entryDy=0;strokeColor=#212121;" edge="1" parent="1" source="3" target="4">
                    <mxGeometry relative="1" as="geometry"/>
                </mxCell>
                <mxCell id="56" style="edgeStyle=orthogonalEdgeStyle;html=1;exitX=0.5;exitY=0;exitDx=0;exitDy=0;entryX=0;entryY=0.5;entryDx=0;entryDy=0;strokeColor=#212121;fontSize=14;fontColor=#1b1818;" edge="1" parent="1" source="3" target="48">
                    <mxGeometry relative="1" as="geometry"/>
                </mxCell>
                <mxCell id="3" value="&lt;font color=&quot;#1b1818&quot;&gt;user looks through &lt;br&gt;list of offered food&lt;/font&gt;" style="ellipse;whiteSpace=wrap;html=1;strokeColor=#0d0d0d;fillColor=#FFFFFF;" vertex="1" parent="1">
                    <mxGeometry x="-199" y="144.67" width="143" height="95.33" as="geometry"/>
                </mxCell>
                <mxCell id="13" style="edgeStyle=orthogonalEdgeStyle;html=1;exitX=1;exitY=0.25;exitDx=0;exitDy=0;strokeColor=#212121;fontColor=#1b1818;" edge="1" parent="1" source="4" target="2">
                    <mxGeometry relative="1" as="geometry"/>
                </mxCell>
                <mxCell id="4" value="" style="rounded=0;whiteSpace=wrap;html=1;fillColor=#FFFFFF;strokeColor=#0d0d0d;" vertex="1" parent="1">
                    <mxGeometry x="13" y="143" width="223" height="454" as="geometry"/>
                </mxCell>
                <mxCell id="7" value="Food Info&lt;br&gt;Restuarant Name&amp;nbsp;&lt;br&gt;time to prepare&lt;br&gt;Quantity" style="rounded=0;whiteSpace=wrap;html=1;strokeColor=#0d0d0d;fontColor=#1b1818;fillColor=#FFFFFF;" vertex="1" parent="1">
                    <mxGeometry x="38" y="157" width="179" height="60" as="geometry"/>
                </mxCell>
                <mxCell id="8" value="Restaurants close to user location" style="text;html=1;strokeColor=none;fillColor=none;align=center;verticalAlign=middle;whiteSpace=wrap;rounded=0;fontColor=#1b1818;" vertex="1" parent="1">
                    <mxGeometry x="15" y="99" width="136" height="30" as="geometry"/>
                </mxCell>
                <mxCell id="11" value="Food Info&lt;br&gt;Restuarant Name&amp;nbsp;&lt;br&gt;time to prepare" style="rounded=0;whiteSpace=wrap;html=1;strokeColor=#0d0d0d;fontColor=#1b1818;fillColor=#FFFFFF;" vertex="1" parent="1">
                    <mxGeometry x="38" y="231" width="179" height="60" as="geometry"/>
                </mxCell>
                <mxCell id="12" value="Food Info&lt;br&gt;Restuarant Name&amp;nbsp;&lt;br&gt;time to prepare" style="rounded=0;whiteSpace=wrap;html=1;strokeColor=#0d0d0d;fontColor=#1b1818;fillColor=#FFFFFF;" vertex="1" parent="1">
                    <mxGeometry x="35" y="305" width="179" height="60" as="geometry"/>
                </mxCell>
                <mxCell id="14" value="food image" style="whiteSpace=wrap;html=1;aspect=fixed;strokeColor=#0d0d0d;fontColor=#1b1818;fillColor=#FFFFFF;" vertex="1" parent="1">
                    <mxGeometry x="502" y="119" width="80" height="80" as="geometry"/>
                </mxCell>
                <mxCell id="15" value="detailed Information and ingredients&lt;br&gt;Time to prepare" style="rounded=0;whiteSpace=wrap;html=1;strokeColor=#0d0d0d;fontColor=#1b1818;fillColor=#FFFFFF;" vertex="1" parent="1">
                    <mxGeometry x="502" y="214" width="179" height="60" as="geometry"/>
                </mxCell>
                <mxCell id="16" value="" style="rounded=0;whiteSpace=wrap;html=1;strokeColor=#0d0d0d;fontColor=#1b1818;fillColor=#FFFFFF;" vertex="1" parent="1">
                    <mxGeometry x="1005" y="84.67" width="385" height="402.33" as="geometry"/>
                </mxCell>
                <mxCell id="17" value="Restaurant" style="text;html=1;strokeColor=none;fillColor=none;align=center;verticalAlign=middle;whiteSpace=wrap;rounded=0;fontColor=#1b1818;" vertex="1" parent="1">
                    <mxGeometry x="1002" y="41" width="74" height="30" as="geometry"/>
                </mxCell>
                <mxCell id="20" style="edgeStyle=orthogonalEdgeStyle;html=1;exitX=1;exitY=0.5;exitDx=0;exitDy=0;entryX=0.253;entryY=0.802;entryDx=0;entryDy=0;entryPerimeter=0;strokeColor=#212121;fontSize=14;fontColor=#1b1818;startArrow=none;" edge="1" parent="1" source="24" target="16">
                    <mxGeometry relative="1" as="geometry"/>
                </mxCell>
                <mxCell id="18" value="Order Button" style="rounded=0;whiteSpace=wrap;html=1;strokeColor=#0d0d0d;fontColor=#1b1818;fillColor=#FFFFFF;" vertex="1" parent="1">
                    <mxGeometry x="69" y="385" width="89" height="44.5" as="geometry"/>
                </mxCell>
                <mxCell id="30" style="edgeStyle=orthogonalEdgeStyle;html=1;exitX=1;exitY=0.5;exitDx=0;exitDy=0;strokeColor=#212121;fontSize=14;fontColor=#1b1818;" edge="1" parent="1" source="19" target="21">
                    <mxGeometry relative="1" as="geometry"/>
                </mxCell>
                <mxCell id="19" value="&lt;font style=&quot;font-size: 14px;&quot;&gt;Upload food items&amp;nbsp;&lt;/font&gt;" style="rounded=0;whiteSpace=wrap;html=1;strokeColor=#0d0d0d;fontColor=#1b1818;fillColor=#FFFFFF;" vertex="1" parent="1">
                    <mxGeometry x="1043" y="118" width="284" height="60" as="geometry"/>
                </mxCell>
                <mxCell id="21" value="" style="rounded=0;whiteSpace=wrap;html=1;strokeColor=#0d0d0d;fontSize=14;fontColor=#1b1818;fillColor=#FFFFFF;" vertex="1" parent="1">
                    <mxGeometry x="1575" y="84.67" width="319" height="395.33" as="geometry"/>
                </mxCell>
                <mxCell id="23" style="edgeStyle=orthogonalEdgeStyle;html=1;exitX=1;exitY=0.5;exitDx=0;exitDy=0;strokeColor=#212121;fontSize=14;fontColor=#1b1818;" edge="1" parent="1" source="22">
                    <mxGeometry relative="1" as="geometry">
                        <mxPoint x="826.6093472567468" y="407.1182972301135" as="targetPoint"/>
                        <Array as="points">
                            <mxPoint x="738" y="307"/>
                            <mxPoint x="738" y="407"/>
                        </Array>
                    </mxGeometry>
                </mxCell>
                <mxCell id="22" value="Order Button" style="rounded=0;whiteSpace=wrap;html=1;strokeColor=#0d0d0d;fontColor=#1b1818;fillColor=#FFFFFF;" vertex="1" parent="1">
                    <mxGeometry x="550" y="285" width="89" height="44.5" as="geometry"/>
                </mxCell>
                <mxCell id="25" value="" style="edgeStyle=orthogonalEdgeStyle;html=1;exitX=1;exitY=0.5;exitDx=0;exitDy=0;entryX=0.253;entryY=0.802;entryDx=0;entryDy=0;entryPerimeter=0;strokeColor=#212121;fontSize=14;fontColor=#1b1818;endArrow=none;" edge="1" parent="1" source="18" target="24">
                    <mxGeometry relative="1" as="geometry">
                        <mxPoint x="158" y="407.25" as="sourcePoint"/>
                        <mxPoint x="1102.4049999999997" y="407.3386599999999" as="targetPoint"/>
                    </mxGeometry>
                </mxCell>
                <mxCell id="24" value="stripe function" style="shape=parallelogram;perimeter=parallelogramPerimeter;whiteSpace=wrap;html=1;fixedSize=1;strokeColor=#0d0d0d;fontSize=14;fontColor=#1b1818;fillColor=#FFFFFF;" vertex="1" parent="1">
                    <mxGeometry x="281" y="385" width="120" height="60" as="geometry"/>
                </mxCell>
                <mxCell id="26" value="" style="rounded=0;whiteSpace=wrap;html=1;strokeColor=#0d0d0d;fontSize=14;fontColor=#1b1818;fillColor=#FFFFFF;" vertex="1" parent="1">
                    <mxGeometry x="265" y="462" width="310" height="162" as="geometry"/>
                </mxCell>
                <mxCell id="27" value="Quetions to answer" style="text;html=1;strokeColor=none;fillColor=none;align=center;verticalAlign=middle;whiteSpace=wrap;rounded=0;fontSize=14;fontColor=#1b1818;" vertex="1" parent="1">
                    <mxGeometry x="278" y="481" width="123" height="30" as="geometry"/>
                </mxCell>
                <mxCell id="28" value="how will payment be transfered to the restaurant" style="rounded=0;whiteSpace=wrap;html=1;strokeColor=#0d0d0d;fontSize=14;fontColor=#1b1818;fillColor=#FFFFFF;" vertex="1" parent="1">
                    <mxGeometry x="289" y="520" width="258" height="60" as="geometry"/>
                </mxCell>
                <mxCell id="35" style="edgeStyle=orthogonalEdgeStyle;html=1;exitX=1;exitY=0.5;exitDx=0;exitDy=0;entryX=0;entryY=0.5;entryDx=0;entryDy=0;strokeColor=#212121;fontSize=14;fontColor=#1b1818;" edge="1" parent="1" source="29" target="34">
                    <mxGeometry relative="1" as="geometry">
                        <Array as="points">
                            <mxPoint x="1467" y="407"/>
                            <mxPoint x="1467" y="662"/>
                            <mxPoint x="1563" y="662"/>
                        </Array>
                    </mxGeometry>
                </mxCell>
                <mxCell id="29" value="Recieved Request" style="rounded=0;whiteSpace=wrap;html=1;strokeColor=#0d0d0d;fontSize=14;fontColor=#1b1818;fillColor=#FFFFFF;" vertex="1" parent="1">
                    <mxGeometry x="1102" y="377.25" width="153" height="60" as="geometry"/>
                </mxCell>
                <mxCell id="31" value="Name of meal&amp;nbsp;" style="rounded=0;whiteSpace=wrap;html=1;strokeColor=#0d0d0d;fontSize=14;fontColor=#1b1818;fillColor=#FFFFFF;" vertex="1" parent="1">
                    <mxGeometry x="1588" y="99" width="270" height="60" as="geometry"/>
                </mxCell>
                <mxCell id="32" value="ingredients&amp;nbsp;" style="rounded=0;whiteSpace=wrap;html=1;strokeColor=#0d0d0d;fontSize=14;fontColor=#1b1818;fillColor=#FFFFFF;" vertex="1" parent="1">
                    <mxGeometry x="1593" y="178" width="270" height="60" as="geometry"/>
                </mxCell>
                <mxCell id="33" value="time to&amp;nbsp; prepare and deliver" style="rounded=0;whiteSpace=wrap;html=1;strokeColor=#0d0d0d;fontSize=14;fontColor=#1b1818;fillColor=#FFFFFF;" vertex="1" parent="1">
                    <mxGeometry x="1591" y="255.84" width="270" height="60" as="geometry"/>
                </mxCell>
                <mxCell id="38" style="edgeStyle=orthogonalEdgeStyle;html=1;exitX=0.25;exitY=1;exitDx=0;exitDy=0;strokeColor=#212121;fontSize=14;fontColor=#1b1818;" edge="1" parent="1" source="34">
                    <mxGeometry relative="1" as="geometry">
                        <mxPoint x="711" y="198" as="targetPoint"/>
                        <Array as="points">
                            <mxPoint x="1653" y="780"/>
                            <mxPoint x="756" y="780"/>
                            <mxPoint x="756" y="198"/>
                        </Array>
                    </mxGeometry>
                </mxCell>
                <mxCell id="44" style="edgeStyle=orthogonalEdgeStyle;html=1;exitX=0.5;exitY=1;exitDx=0;exitDy=0;strokeColor=#212121;fontSize=14;fontColor=#1b1818;entryX=1;entryY=0.5;entryDx=0;entryDy=0;" edge="1" parent="1" source="34" target="43">
                    <mxGeometry relative="1" as="geometry"/>
                </mxCell>
                <mxCell id="34" value="" style="rounded=0;whiteSpace=wrap;html=1;strokeColor=#0d0d0d;fontSize=14;fontColor=#1b1818;fillColor=#FFFFFF;" vertex="1" parent="1">
                    <mxGeometry x="1573" y="564" width="319" height="195" as="geometry"/>
                </mxCell>
                <mxCell id="36" value="Recieves Notification for Request" style="rounded=0;whiteSpace=wrap;html=1;strokeColor=#0d0d0d;fontSize=14;fontColor=#1b1818;fillColor=#FFFFFF;" vertex="1" parent="1">
                    <mxGeometry x="1593" y="582" width="270" height="60" as="geometry"/>
                </mxCell>
                <mxCell id="37" value="changes status of buyers order to processing" style="rounded=0;whiteSpace=wrap;html=1;strokeColor=#0d0d0d;fontSize=14;fontColor=#1b1818;fillColor=#FFFFFF;" vertex="1" parent="1">
                    <mxGeometry x="1593" y="662" width="270" height="60" as="geometry"/>
                </mxCell>
                <mxCell id="39" value="Database" style="shape=cylinder3;whiteSpace=wrap;html=1;boundedLbl=1;backgroundOutline=1;size=15;strokeColor=#0d0d0d;fontSize=14;fontColor=#1b1818;fillColor=#FFFFFF;" vertex="1" parent="1">
                    <mxGeometry x="654" y="-215" width="138" height="161" as="geometry"/>
                </mxCell>
                <mxCell id="40" value="" style="shape=flexArrow;endArrow=classic;startArrow=classic;html=1;strokeColor=#212121;fontSize=14;fontColor=#1b1818;" edge="1" parent="1">
                    <mxGeometry width="100" height="100" relative="1" as="geometry">
                        <mxPoint x="1168" y="83" as="sourcePoint"/>
                        <mxPoint x="794" y="-81" as="targetPoint"/>
                    </mxGeometry>
                </mxCell>
                <mxCell id="42" value="" style="shape=flexArrow;endArrow=classic;startArrow=classic;html=1;strokeColor=#212121;fontSize=14;fontColor=#1b1818;entryX=0.007;entryY=0.765;entryDx=0;entryDy=0;entryPerimeter=0;exitX=0.856;exitY=-0.014;exitDx=0;exitDy=0;exitPerimeter=0;" edge="1" parent="1" source="4" target="39">
                    <mxGeometry width="100" height="100" relative="1" as="geometry">
                        <mxPoint x="430" y="127" as="sourcePoint"/>
                        <mxPoint x="530" y="27" as="targetPoint"/>
                    </mxGeometry>
                </mxCell>
                <mxCell id="45" style="edgeStyle=orthogonalEdgeStyle;html=1;exitX=0;exitY=0.5;exitDx=0;exitDy=0;entryX=0.456;entryY=0.999;entryDx=0;entryDy=0;entryPerimeter=0;strokeColor=#212121;fontSize=14;fontColor=#1b1818;" edge="1" parent="1" source="43" target="4">
                    <mxGeometry relative="1" as="geometry"/>
                </mxCell>
                <mxCell id="43" value="Sustainable means of Deivery" style="rounded=0;whiteSpace=wrap;html=1;strokeColor=#0d0d0d;fontSize=14;fontColor=#1b1818;fillColor=#FFFFFF;" vertex="1" parent="1">
                    <mxGeometry x="830" y="900" width="158" height="73" as="geometry"/>
                </mxCell>
                <mxCell id="46" value="confirm order Receipt" style="rounded=0;whiteSpace=wrap;html=1;strokeColor=#0d0d0d;fontSize=14;fontColor=#1b1818;fillColor=#FFFFFF;" vertex="1" parent="1">
                    <mxGeometry x="53.5" y="513" width="120" height="60" as="geometry"/>
                </mxCell>
                <mxCell id="47" value="Uploads number of seat for reservation" style="rounded=0;whiteSpace=wrap;html=1;strokeColor=#0d0d0d;fontSize=14;fontColor=#1b1818;fillColor=#FFFFFF;" vertex="1" parent="1">
                    <mxGeometry x="1043" y="204" width="291" height="60" as="geometry"/>
                </mxCell>
                <mxCell id="48" value="" style="rounded=0;whiteSpace=wrap;html=1;strokeColor=#0d0d0d;fontSize=14;fontColor=#1b1818;fillColor=#FFFFFF;" vertex="1" parent="1">
                    <mxGeometry x="13" y="-338" width="221" height="300" as="geometry"/>
                </mxCell>
                <mxCell id="53" style="edgeStyle=orthogonalEdgeStyle;html=1;exitX=1;exitY=0.5;exitDx=0;exitDy=0;entryX=0;entryY=0.5;entryDx=0;entryDy=0;strokeColor=#212121;fontSize=14;fontColor=#1b1818;" edge="1" parent="1" source="49" target="52">
                    <mxGeometry relative="1" as="geometry"/>
                </mxCell>
                <mxCell id="49" value="Restaurant and available&amp;nbsp;&lt;br&gt;seats for reservation" style="rounded=0;whiteSpace=wrap;html=1;strokeColor=#0d0d0d;fontSize=14;fontColor=#1b1818;fillColor=#FFFFFF;" vertex="1" parent="1">
                    <mxGeometry x="31" y="-324" width="176" height="60" as="geometry"/>
                </mxCell>
                <mxCell id="50" value="Restaurant and available&amp;nbsp;&lt;br&gt;seats for reservation" style="rounded=0;whiteSpace=wrap;html=1;strokeColor=#0d0d0d;fontSize=14;fontColor=#1b1818;fillColor=#FFFFFF;" vertex="1" parent="1">
                    <mxGeometry x="31" y="-244" width="176" height="60" as="geometry"/>
                </mxCell>
                <mxCell id="51" value="Restaurant and available&amp;nbsp;&lt;br&gt;seats for reservation" style="rounded=0;whiteSpace=wrap;html=1;strokeColor=#0d0d0d;fontSize=14;fontColor=#1b1818;fillColor=#FFFFFF;" vertex="1" parent="1">
                    <mxGeometry x="31" y="-164.5" width="176" height="60" as="geometry"/>
                </mxCell>
                <mxCell id="52" value="" style="rounded=0;whiteSpace=wrap;html=1;fillColor=#FFFFFF;strokeColor=#0d0d0d;" vertex="1" parent="1">
                    <mxGeometry x="338" y="-586" width="223" height="248" as="geometry"/>
                </mxCell>
                <mxCell id="54" value="Seat Number" style="rounded=0;whiteSpace=wrap;html=1;strokeColor=#0d0d0d;fontSize=14;fontColor=#1b1818;fillColor=#FFFFFF;" vertex="1" parent="1">
                    <mxGeometry x="360" y="-562" width="170" height="60" as="geometry"/>
                </mxCell>
                <mxCell id="55" value="&lt;br&gt;Seat type" style="rounded=0;whiteSpace=wrap;html=1;strokeColor=#0d0d0d;fontSize=14;fontColor=#1b1818;fillColor=#FFFFFF;" vertex="1" parent="1">
                    <mxGeometry x="360" y="-490" width="170" height="60" as="geometry"/>
                </mxCell>
                <mxCell id="60" value="" style="endArrow=classic;html=1;strokeColor=#212121;fontSize=14;fontColor=#1b1818;entryX=0.5;entryY=1;entryDx=0;entryDy=0;entryPerimeter=0;" edge="1" parent="1" target="39">
                    <mxGeometry width="50" height="50" relative="1" as="geometry">
                        <mxPoint x="897" y="409" as="sourcePoint"/>
                        <mxPoint x="523" y="209" as="targetPoint"/>
                    </mxGeometry>
                </mxCell>
                <mxCell id="65" style="edgeStyle=orthogonalEdgeStyle;html=1;exitX=0.5;exitY=1;exitDx=0;exitDy=0;strokeColor=#212121;fontSize=14;fontColor=#1b1818;entryX=0;entryY=0.5;entryDx=0;entryDy=0;entryPerimeter=0;" edge="1" parent="1" source="62" target="39">
                    <mxGeometry relative="1" as="geometry">
                        <mxPoint x="417.8851776123047" y="-152.34490966796875" as="targetPoint"/>
                    </mxGeometry>
                </mxCell>
                <mxCell id="62" value="Reserve" style="rounded=1;whiteSpace=wrap;html=1;strokeColor=#0d0d0d;fontSize=14;fontColor=#1b1818;fillColor=#FFFFFF;" vertex="1" parent="1">
                    <mxGeometry x="401" y="-404" width="89.5" height="35" as="geometry"/>
                </mxCell>
                <mxCell id="66" value="Qauntity&amp;nbsp;" style="rounded=0;whiteSpace=wrap;html=1;strokeColor=#0d0d0d;fontColor=#1b1818;fillColor=#FFFFFF;" vertex="1" parent="1">
                    <mxGeometry x="591" y="149" width="112" height="32" as="geometry"/>
                </mxCell>
                <mxCell id="67" value="Seat Reservation status" style="rounded=0;whiteSpace=wrap;html=1;strokeColor=#0d0d0d;fontSize=14;fontColor=#1b1818;fillColor=#FFFFFF;" vertex="1" parent="1">
                    <mxGeometry x="1043" y="291" width="291" height="60" as="geometry"/>
                </mxCell>
            </root>
        </mxGraphModel>
    </diagram>
</mxfile>